# xmcd
#
# Track frame offsets: 
#        150
#        17175
#        32700
#        51132
#        67725
#        94800
#        108900
#        132375
#        152025
#        176387
#
# Disc length: 2581 seconds
#
# Revision: 4
# Processed by: cddbd v1.5.2PL0 Copyright (c) Steve Scherf et al.
# Submitted via: ExactAudioCopy v1.0b1
#
DISCID=790a130a
DTITLE=Pat Benatar - Live From Earth
DYEAR=1983
DGENRE=Rock
TTITLE0=Fire and Ice
TTITLE1=Lookin' for a Stranger
TTITLE2=I Want Out
TTITLE3=We Live for Love
TTITLE4=Hell is for Children
TTITLE5=Hit Me With Your Best Shot
TTITLE6=Promises in the Dark
TTITLE7=Heartbreaker
TTITLE8=Love is a Battlefield
TTITLE9=Lipstick Lies
EXTD=YEAR: 1983
EXTT0=Produced by Neil Geraldo
EXTT1=Produced by Neil Geraldo
EXTT2=Produced by Neil Geraldo
EXTT3=Produced by Neil Geraldo
EXTT4=Produced by Neil Geraldo
EXTT5=Produced by Neil Geraldo
EXTT6=Produced by Neil Geraldo
EXTT7=Produced by Neil Geraldo
EXTT8=Produced by Neil Geraldo and Peter Coleman
EXTT9=Produced by Neil Geraldo and Peter Coleman
PLAYORDER=
